<svg xmlns="http://www.w3.org/2000/svg" xmlns:xlink="http://www.w3.org/1999/xlink" class="mr-2 mr-sm-3 mt-n1" width="25px" height="30px" viewBox="0 0 25 30">
    <path fill-rule="evenodd" fill="rgb(70, 97, 138)" d="M24.474,20.626 C24.118,20.987 23.686,21.167 23.178,21.167 C22.681,21.167 22.254,20.987 21.899,20.626 C21.544,20.266 21.367,19.828 21.367,19.310 L21.367,11.554 C21.367,11.038 21.544,10.602 21.899,10.247 C22.254,9.892 22.680,9.714 23.178,9.714 C23.686,9.714 24.118,9.892 24.474,10.247 C24.829,10.602 25.006,11.038 25.006,11.554 L25.006,19.310 C25.006,19.828 24.829,20.266 24.474,20.626 ZM5.423,5.521 C6.180,4.337 7.199,3.414 8.477,2.752 L7.216,0.390 C7.133,0.233 7.163,0.113 7.305,0.029 C7.458,-0.043 7.577,-0.007 7.660,0.137 L8.938,2.518 C10.063,2.013 11.252,1.760 12.507,1.760 C13.761,1.760 14.951,2.013 16.076,2.518 L17.354,0.137 C17.437,-0.007 17.555,-0.044 17.709,0.029 C17.851,0.113 17.881,0.233 17.798,0.390 L16.537,2.752 C17.803,3.414 18.816,4.337 19.573,5.521 C20.331,6.706 20.710,8.001 20.710,9.408 L4.287,9.408 C4.287,8.001 4.665,6.706 5.423,5.521 ZM15.765,6.188 C15.901,6.327 16.063,6.396 16.253,6.396 C16.442,6.396 16.602,6.327 16.732,6.188 C16.862,6.050 16.927,5.885 16.927,5.692 C16.927,5.500 16.863,5.336 16.732,5.197 C16.602,5.058 16.442,4.989 16.253,4.989 C16.063,4.989 15.901,5.058 15.765,5.197 C15.628,5.335 15.560,5.500 15.560,5.692 C15.560,5.885 15.628,6.050 15.765,6.188 ZM8.281,6.188 C8.411,6.327 8.571,6.396 8.760,6.396 C8.950,6.396 9.112,6.327 9.249,6.188 C9.384,6.050 9.453,5.885 9.453,5.692 C9.453,5.500 9.385,5.336 9.249,5.197 C9.112,5.058 8.950,4.989 8.760,4.989 C8.571,4.989 8.411,5.058 8.281,5.197 C8.151,5.335 8.086,5.500 8.086,5.692 C8.086,5.885 8.151,6.050 8.281,6.188 ZM1.836,21.167 C1.327,21.167 0.895,20.987 0.540,20.626 C0.185,20.266 0.007,19.828 0.007,19.310 L0.007,11.554 C0.007,11.049 0.185,10.616 0.540,10.255 C0.895,9.894 1.327,9.714 1.836,9.714 C2.333,9.714 2.759,9.894 3.114,10.255 C3.469,10.616 3.647,11.049 3.647,11.554 L3.647,19.310 C3.647,19.828 3.472,20.266 3.123,20.626 C2.774,20.987 2.344,21.167 1.836,21.167 ZM20.655,22.069 C20.655,22.623 20.466,23.092 20.087,23.477 C19.708,23.862 19.253,24.054 18.720,24.054 L17.388,24.054 L17.388,28.148 C17.388,28.665 17.211,29.104 16.856,29.465 C16.501,29.826 16.069,30.006 15.560,30.006 C15.051,30.006 14.619,29.826 14.264,29.465 C13.909,29.104 13.731,28.665 13.731,28.148 L13.731,24.054 L11.281,24.054 L11.281,28.148 C11.281,28.665 11.104,29.104 10.749,29.465 C10.394,29.826 9.961,30.006 9.453,30.006 C8.956,30.006 8.529,29.826 8.174,29.465 C7.819,29.104 7.642,28.665 7.642,28.148 L7.624,24.053 L6.310,24.053 C5.765,24.053 5.304,23.861 4.925,23.476 C4.546,23.092 4.357,22.623 4.357,22.069 L4.357,10.057 L20.655,10.057 L20.655,22.069 Z"></path>
</svg>