<svg xmlns="http://www.w3.org/2000/svg" xmlns:xlink="http://www.w3.org/1999/xlink" width="24px" height="29px" viewBox="0 0 24 29" class="mr-2 mr-sm-3 mt-n2">
    <path fill-rule="evenodd" fill="rgb(70, 97, 138)" d="M23.245,21.367 C23.049,22.002 22.468,23.663 21.310,25.374 C20.199,27.012 18.941,28.869 16.892,28.908 C15.934,28.926 15.285,28.641 14.656,28.365 C14.017,28.086 13.357,27.798 12.322,27.798 C11.234,27.798 10.541,28.096 9.870,28.385 C9.273,28.642 8.655,28.908 7.800,28.943 C7.765,28.944 7.731,28.945 7.696,28.945 C5.877,28.945 4.549,27.223 3.237,25.306 C0.608,21.470 -0.903,15.146 1.474,10.978 C2.724,8.781 4.991,7.394 7.391,7.358 C7.415,7.358 7.439,7.358 7.464,7.358 C8.496,7.358 9.471,7.749 10.331,8.094 C10.974,8.352 11.529,8.574 11.957,8.574 C12.338,8.574 12.890,8.354 13.530,8.099 C14.456,7.730 15.609,7.271 16.813,7.271 C16.967,7.271 17.120,7.278 17.269,7.293 C18.294,7.338 20.839,7.708 22.499,10.163 C22.534,10.216 22.547,10.280 22.535,10.341 C22.523,10.402 22.486,10.457 22.434,10.491 L22.412,10.505 C21.929,10.806 19.523,12.470 19.554,15.613 C19.587,19.481 22.753,20.900 23.114,21.049 C23.117,21.050 23.128,21.055 23.131,21.056 C23.238,21.106 23.291,21.229 23.253,21.342 L23.245,21.367 ZM12.019,7.451 C11.919,7.451 11.819,7.447 11.721,7.439 C11.612,7.431 11.525,7.347 11.510,7.238 C11.282,5.496 12.148,3.768 13.033,2.732 C14.075,1.498 15.818,0.595 17.271,0.535 C17.390,0.530 17.496,0.620 17.509,0.742 C17.678,2.294 17.121,4.027 16.019,5.377 C14.973,6.657 13.440,7.451 12.019,7.451 Z"></path>
</svg>