<svg xmlns="http://www.w3.org/2000/svg" xmlns:xlink="http://www.w3.org/1999/xlink" width="22px" height="21px" viewBox="0 0 22 21">
<defs>
    <linearGradient id="PSgrad_0" x1="0%" x2="0%" y1="100%" y2="0%">
        <stop offset="0%" stop-color="rgb(255,153,69)" stop-opacity="1"></stop>
        <stop offset="100%" stop-color="rgb(255,184,69)" stop-opacity="1"></stop>
    </linearGradient>
</defs>
<path fill-rule="evenodd" fill="rgb(70, 97, 138)" d="M21.271,8.822 C21.414,8.681 21.465,8.482 21.403,8.293 C21.342,8.102 21.185,7.970 20.986,7.940 L14.901,7.056 C14.640,7.017 14.416,6.854 14.301,6.620 L11.581,1.114 C11.491,0.935 11.318,0.826 11.119,0.826 C10.920,0.826 10.743,0.932 10.656,1.114 L7.936,6.620 C7.821,6.854 7.597,7.017 7.337,7.056 L1.252,7.940 C1.053,7.967 0.896,8.099 0.834,8.293 C0.773,8.482 0.820,8.681 0.966,8.822 L5.367,13.107 C5.555,13.289 5.642,13.552 5.597,13.812 L4.557,19.863 C4.524,20.062 4.599,20.249 4.762,20.366 C4.924,20.484 5.129,20.498 5.305,20.406 L10.749,17.550 C10.981,17.426 11.259,17.426 11.491,17.550 L16.932,20.406 C17.111,20.498 17.313,20.484 17.475,20.366 C17.638,20.249 17.716,20.059 17.680,19.863 L16.641,13.812 C16.596,13.555 16.683,13.291 16.870,13.107 L21.271,8.822 Z"></path>
<path fill="url(#PSgrad_0)" d="M21.271,8.822 C21.414,8.681 21.465,8.482 21.403,8.293 C21.342,8.102 21.185,7.970 20.986,7.940 L14.901,7.056 C14.640,7.017 14.416,6.854 14.301,6.620 L11.581,1.114 C11.491,0.935 11.318,0.826 11.119,0.826 C10.920,0.826 10.743,0.932 10.656,1.114 L7.936,6.620 C7.821,6.854 7.597,7.017 7.337,7.056 L1.252,7.940 C1.053,7.967 0.896,8.099 0.834,8.293 C0.773,8.482 0.820,8.681 0.966,8.822 L5.367,13.107 C5.555,13.289 5.642,13.552 5.597,13.812 L4.557,19.863 C4.524,20.062 4.599,20.249 4.762,20.366 C4.924,20.484 5.129,20.498 5.305,20.406 L10.749,17.550 C10.981,17.426 11.259,17.426 11.491,17.550 L16.932,20.406 C17.111,20.498 17.313,20.484 17.475,20.366 C17.638,20.249 17.716,20.059 17.680,19.863 L16.641,13.812 C16.596,13.555 16.683,13.291 16.870,13.107 L21.271,8.822 Z"></path>
</svg>