<svg xmlns="http://www.w3.org/2000/svg" xmlns:xlink="http://www.w3.org/1999/xlink" width="22px" height="21px" viewBox="0 0 22 21">
<defs>
    <linearGradient id="PSgrad_0" x1="0%" x2="0%" y1="100%" y2="0%">
        <stop offset="0%" stop-color="rgb(255,153,69)" stop-opacity="1"></stop>
        <stop offset="100%" stop-color="rgb(255,184,69)" stop-opacity="1"></stop>
    </linearGradient>
</defs>
<path fill-rule="evenodd" opacity="0.2" fill="rgb(70, 97, 138)" d="M21.148,8.823 L16.751,13.104 C16.564,13.289 16.477,13.552 16.521,13.810 L17.560,19.855 C17.596,20.050 17.518,20.240 17.356,20.358 C17.193,20.475 16.992,20.489 16.813,20.397 L11.377,17.543 C11.318,17.512 11.251,17.511 11.187,17.496 L11.187,0.886 C11.304,0.932 11.407,1.004 11.466,1.123 L14.184,6.623 C14.299,6.858 14.523,7.021 14.783,7.059 L20.863,7.942 C21.062,7.973 21.218,8.105 21.280,8.295 C21.341,8.484 21.291,8.683 21.148,8.823 Z"></path>
<path fill-rule="evenodd" fill="rgb(70, 97, 138)" d="M12.937,18.362 L11.377,17.543 C11.145,17.420 10.867,17.420 10.635,17.543 L5.197,20.397 C5.020,20.489 4.816,20.475 4.654,20.358 C4.491,20.240 4.416,20.054 4.449,19.855 L5.488,13.810 C5.533,13.549 5.446,13.287 5.258,13.104 L0.861,8.823 C0.715,8.683 0.668,8.484 0.729,8.295 C0.791,8.102 0.948,7.970 1.146,7.942 L7.226,7.059 C7.486,7.021 7.710,6.858 7.825,6.623 L10.543,1.123 C10.630,0.941 10.806,0.835 11.005,0.835 C11.203,0.835 11.377,0.943 11.466,1.123 L12.937,4.100 L12.937,18.362 Z"></path>
<path fill="url(#PSgrad_0)" d="M12.937,18.362 L11.377,17.543 C11.145,17.420 10.867,17.420 10.635,17.543 L5.197,20.397 C5.020,20.489 4.816,20.475 4.654,20.358 C4.491,20.240 4.416,20.054 4.449,19.855 L5.488,13.810 C5.533,13.549 5.446,13.287 5.258,13.104 L0.861,8.823 C0.715,8.683 0.668,8.484 0.729,8.295 C0.791,8.102 0.948,7.970 1.146,7.942 L7.226,7.059 C7.486,7.021 7.710,6.858 7.825,6.623 L10.543,1.123 C10.630,0.941 10.806,0.835 11.005,0.835 C11.203,0.835 11.377,0.943 11.466,1.123 L12.937,4.100 L12.937,18.362 Z"></path>
</svg>