<svg xmlns="http://www.w3.org/2000/svg" width="180" height="100" viewBox="0 0 180 100">
  <metadata><?xpacket begin="﻿" id="W5M0MpCehiHzreSzNTczkc9d"?>
<x:xmpmeta xmlns:x="adobe:ns:meta/" x:xmptk="Adobe XMP Core 5.6-c140 79.160451, 2017/05/06-01:08:21        ">
   <rdf:RDF xmlns:rdf="http://www.w3.org/1999/02/22-rdf-syntax-ns#">
      <rdf:Description rdf:about=""/>
   </rdf:RDF>
</x:xmpmeta>
                                                                                                    
                                                                                                    
                                                                                                    
                                                                                                    
                                                                                                    
                                                                                                    
                                                                                                    
                                                                                                    
                                                                                                    
                                                                                                    
                                                                                                    
                                                                                                    
                                                                                                    
                                                                                                    
                                                                                                    
                                                                                                    
                                                                                                    
                                                                                                    
                                                                                                    
                                                                                                    
                           
<?xpacket end="w"?></metadata>
<defs>
    <style>
      .cls-1 {
        fill: #e1f1f5;
        fill-rule: evenodd;
      }
    </style>
  </defs>
  <path class="cls-1" d="M1865.15,3079.75c-1.9-8.45-2.32-9.9-5.11-10.6l-2.04-.56v-2h25.84v2l-2.19.42c-4.66,1.01-4.23,5.58-2.92,11.75l11.52,56.22,8.46-44.75-3.06-15.35c-1.17-5.44-1.62-7.17-4.52-7.9l-1.9-.39v-2h26.72v2l-3.21.59c-4.83.86-4.09,6.03-2.93,11.61l11.1,56.22,10.96-53.21c2.05-11.05,1.03-13.76-3.35-14.62l-3.06-.59v-2H1944v2l-2.05.73c-2.92,1-3.66,3.74-5.68,13.2l-17.8,83.48h-3.8l-13.71-65.12L1888.55,3166h-4.83Zm102.44,86.22c-8.46,0-11.39-5.75-14.17-5.75-1.62,0-3.49.42-4.97,5.17h-1.76v-32.71h2.19c1.76,18.5,8.74,30.11,18.54,30.11,6.56,0,11.1-5.89,11.1-16.49,0-22.38-32.54-31.97-32.54-56.78,0-13.34,6.87-23.52,19.25-23.52,8.04,0,9.63,5.16,12.98,5.16,1.9,0,3.21-1.42,3.94-4.57h1.76v32.7h-2.18c-1.76-16.49-6.13-30.11-16.64-30.11-7.3,0-8.6,7.17-8.6,12.05,0,21.38,32.54,28.69,32.54,58.51,0.02,15.18-8.44,26.23-21.44,26.23h0Zm63.2-23.38c0,15.35-7.89,23.38-19.99,23.38-10.96,0-17.37-8.76-17.23-18.36,0.14-7.45,5.68-11.19,10.22-10.6,3.21,0.42,6.41,2.73,5.99,7.76-0.43,7.17-8.32,6.89-8.6,11.33-0.29,2.73,3.35,6.75,8.03,6.75,8.18,0,8.18-10.19,8.18-17.95v-69.58c0-4.02-1.31-5.16-4.52-5.89l-3.63-.86v-1.98H2038v2l-3.21.87c-2.92.72-3.94,2.01-3.94,6.03Z" transform="translate(-1858 -3066)"/>
</svg>
