<svg xmlns="http://www.w3.org/2000/svg" width="396" height="100" viewBox="0 0 396 100">
  <metadata><?xpacket begin="﻿" id="W5M0MpCehiHzreSzNTczkc9d"?>
<x:xmpmeta xmlns:x="adobe:ns:meta/" x:xmptk="Adobe XMP Core 5.6-c140 79.160451, 2017/05/06-01:08:21        ">
   <rdf:RDF xmlns:rdf="http://www.w3.org/1999/02/22-rdf-syntax-ns#">
      <rdf:Description rdf:about=""/>
   </rdf:RDF>
</x:xmpmeta>
                                                                                                    
                                                                                                    
                                                                                                    
                                                                                                    
                                                                                                    
                                                                                                    
                                                                                                    
                                                                                                    
                                                                                                    
                                                                                                    
                                                                                                    
                                                                                                    
                                                                                                    
                                                                                                    
                                                                                                    
                                                                                                    
                                                                                                    
                                                                                                    
                                                                                                    
                                                                                                    
                           
<?xpacket end="w"?></metadata>
<defs>
    <style>
      .cls-1 {
        fill: #e1f1f5;
        fill-rule: evenodd;
      }
    </style>
  </defs>
  <path class="cls-1" d="M2407,3154.83h22.71v-27.89h6.72l16.4,27.89h26.28l-19.97-32.18a29.306,29.306,0,0,0-13.6-55.44H2407v11.4a46.164,46.164,0,0,0-31.58-12.61,45.052,45.052,0,1,0,.06,90.1,46.182,46.182,0,0,0,31.58-12.61v11.34H2407Zm-15.41-27.89a22.927,22.927,0,0,1-16.17,6.65,22.511,22.511,0,1,1,16.17-38.37l15.41-15.27v62.26Zm38.12-19.68v-20.37h12.38a10.186,10.186,0,1,1,0,20.37h-12.38Zm217.36,41.78-1.69,2.32a15.383,15.383,0,0,0,10.45,3.76c5.19,0,9.34-2.78,9.34-7.7,0-3.88-1.93-5.55-8.06-7.64l-2.34-.81c-3.44-1.15-5.31-2.25-5.31-4.8,0-3.13,2.92-4.34,5.67-4.34a12.022,12.022,0,0,1,7.35,3.12l1.81-2.43a13.868,13.868,0,0,0-9.16-3.29c-4.73,0-8.59,2.48-8.59,7.11,0,3.53,2.16,5.79,7.36,7.58l2.63,0.93c3.91,1.39,5.72,2.14,5.72,4.57,0,3.53-3.1,5.09-6.42,5.09a13.072,13.072,0,0,1-8.76-3.47m-3.5,4.28-0.82-2.37a9.41,9.41,0,0,1-5.14,1.45c-2.68,0-3.97-1.62-3.97-4.52v-17.65h9.69v-2.77h-9.69v-9.49h-3.04v29.91c0,4.52,2.28,7.24,6.84,7.24a11.33,11.33,0,0,0,6.13-1.8m-27.03,1.51v-16.15c0.64-6.07,5.77-9.02,10.97-8.33v-3.07a10.519,10.519,0,0,0-10.97,5.62l-0.06-5.44h-2.92v27.43h2.98v-0.06Zm-20.56-27.66a14.006,14.006,0,1,0,14.13,14A14.063,14.063,0,0,0,2595.98,3127.17Zm0,25a11.055,11.055,0,1,1,11.16-11.06A11.09,11.09,0,0,1,2595.98,3152.17Zm-30.76-25a12.8,12.8,0,0,0-10.98,6.36v-6.07h-2.98V3166h2.98v-17.25a13.052,13.052,0,0,0,11.15,6.43A14.006,14.006,0,0,0,2565.22,3127.17Zm0,25a11.055,11.055,0,1,1,10.97-11.06A11.035,11.035,0,0,1,2565.22,3152.17Zm-17.34-12.21a12.37,12.37,0,0,0-12.67-12.79c-7.18,0-13.25,5.67-13.25,13.89a13.883,13.883,0,0,0,13.78,14.12,13.607,13.607,0,0,0,10.91-5.21l-2.16-1.8a10.508,10.508,0,0,1-8.75,4.17,10.821,10.821,0,0,1-10.75-10.47h22.89v-1.91Zm-22.83-.81c0.82-5.56,5.02-9.26,10.1-9.26a9.528,9.528,0,0,1,9.63,9.26h-19.73Zm-14.42-.93c6.77-1.04,10.8-5.9,10.8-11.57,0-6.78-4.67-11.75-13.19-11.75h-13.49v39.99h3.15v-16.44h8.99l11.39,16.44h3.85Zm-12.73-2.78v-17.59h10.28c6.36,0,10.04,3.53,10.04,8.8,0,4.68-3.21,8.79-10.16,8.79H2497.9Zm217.12-28.18v-16.15c0.65-6.07,5.78-9.02,10.98-8.33v-3.07a10.554,10.554,0,0,0-10.98,5.62l-0.05-5.44h-2.92v27.43h2.97v-0.06Zm-6.42-14.87a12.37,12.37,0,0,0-12.67-12.79c-7.18,0-13.25,5.67-13.25,13.89a13.883,13.883,0,0,0,13.78,14.12,13.6,13.6,0,0,0,10.92-5.21l-2.16-1.79a10.545,10.545,0,0,1-8.76,4.16c-5.72,0-10.33-4.4-10.74-10.47h22.88v-1.91h0Zm-22.82-.81c0.81-5.56,5.02-9.26,10.1-9.26a9.534,9.534,0,0,1,9.63,9.26h-19.73Zm-44.67,1.79c0.12-7.23,3.8-11.05,8.94-11.05,4.32,0,7.18,2.72,7.12,7.64v17.3h2.98v-13.89c0.11-7.23,3.79-11.05,8.93-11.05,4.32,0,7.18,2.72,7.12,7.64v17.3h2.98v-17.42c0.06-6.42-3.56-10.3-9.81-10.3a10.5,10.5,0,0,0-9.81,6.54c-1.22-4.05-4.55-6.54-9.28-6.54a10.186,10.186,0,0,0-9.28,5.79v-5.5h-2.98v27.43H2641v-13.89h0.11Zm-10.45,13.89h2.98v-27.37h-2.98v13.94c-0.11,7.24-4.14,11.06-9.75,11.06-4.43,0-7.35-2.72-7.35-7.64v-17.36h-2.98v17.42c0,6.42,3.68,10.3,10.04,10.3a10.907,10.907,0,0,0,10.1-6.08v5.73h-0.06Zm-41.62-5.79-1.7,2.32a15.372,15.372,0,0,0,10.45,3.76c5.2,0,9.35-2.78,9.35-7.7,0-3.87-1.93-5.55-8.06-7.64l-2.34-.81c-3.44-1.15-5.31-2.25-5.31-4.8,0-3.12,2.92-4.34,5.66-4.34a12.024,12.024,0,0,1,7.36,3.12l1.81-2.43a13.875,13.875,0,0,0-9.17-3.29c-4.72,0-8.58,2.48-8.58,7.11,0,3.53,2.16,5.79,7.36,7.58l2.63,0.93c3.91,1.39,5.72,2.14,5.72,4.57,0,3.53-3.1,5.1-6.43,5.1a13.074,13.074,0,0,1-8.75-3.48m-24.87-8.1c0.11-7.23,4.14-11.05,9.75-11.05,4.43,0,7.35,2.72,7.35,7.64v17.3h2.98v-17.42c0-6.42-3.68-10.3-10.04-10.3a10.907,10.907,0,0,0-10.1,6.08v-5.79h-2.98v27.43h2.98v-13.89h0.06Zm-20.49-13.77a14.005,14.005,0,1,0,14.12,14A14.063,14.063,0,0,0,2543.68,3079.6Zm0,25a11.055,11.055,0,1,1,11.15-11.06A11.1,11.1,0,0,1,2543.68,3104.6Zm-18.63-6.83a17.166,17.166,0,1,1-13.66-27.49,16.851,16.851,0,0,1,13.66,6.66l2.4-2.32a20.946,20.946,0,0,0-16.06-7.52,20.28,20.28,0,1,0,15.94,32.98Zm139.07,22.16h-1.7v-0.4h3.8v0.4h-1.7v4.92h-0.4v-4.92h0Zm8.23-.4v5.32h-0.41v-4.51h0l-1.99,3.36h-0.29l-1.98-3.36h0v4.51h-0.41v-5.32h0.41l2.16,3.7h0l2.16-3.7h0.35Z" transform="translate(-2330 -3066)"/>
</svg>
