<svg xmlns="http://www.w3.org/2000/svg" width="94" height="130" viewBox="0 0 94 130">
  <metadata><?xpacket begin="﻿" id="W5M0MpCehiHzreSzNTczkc9d"?>
<x:xmpmeta xmlns:x="adobe:ns:meta/" x:xmptk="Adobe XMP Core 5.6-c140 79.160451, 2017/05/06-01:08:21        ">
   <rdf:RDF xmlns:rdf="http://www.w3.org/1999/02/22-rdf-syntax-ns#">
      <rdf:Description rdf:about=""/>
   </rdf:RDF>
</x:xmpmeta>
                                                                                                    
                                                                                                    
                                                                                                    
                                                                                                    
                                                                                                    
                                                                                                    
                                                                                                    
                                                                                                    
                                                                                                    
                                                                                                    
                                                                                                    
                                                                                                    
                                                                                                    
                                                                                                    
                                                                                                    
                                                                                                    
                                                                                                    
                                                                                                    
                                                                                                    
                                                                                                    
                           
<?xpacket end="w"?></metadata>
<defs>
    <style>
      .cls-1 {
        fill: #e1f1f5;
        fill-rule: evenodd;
      }
    </style>
  </defs>
  <path class="cls-1" d="M2209.43,3087.25v21.49l10.86,8.94,0.15,0.99-11.02,8.93v28.78c7.61-4.47,13.45-12.9,17.5-21.83l1.62,0.15c0.33,23.32-17.18,45.31-44.73,45.31-25.44,0-47.81-20.83-47.81-48.94,0-23.5,18.48-42.51,38.74-48.13l0.48,1.65c-7.29,4.47-14.42,10.59-17.99,19.85l34.2-15.55v47.47l-27.88,13.72c7.46,8.44,16.86,11.08,26.74,11.08,5.35,0,11.51-.82,16.86-3.97v-29.6l-10.37-9.26v-0.83l10.37-8.77v-21.49c-5.51-.67-15.72-3.15-24.96-5.8-10.7-3.14-18.8-5.95-24.96-5.95-6.8,0-9.4,4.79-9.4,7.78,0,3.97,1.95,5.45,3.89,6.78l-0.97,1.65c-3.08-1.33-10.53-4.96-10.53-15.05,0-12.4,10.04-22.5,23.33-22.5,6.81,0,14.91,2.82,23.5,5.79,7.78,2.65,17.5,5.62,22.53,5.62,6.32,0,8.43-3.79,8.43-6.78,0-4.29-4.87-6.45-11.19-6.6v-2.15c10.54-.5,23.18,3.47,23.18,17.2l0.01,0.01C2230.01,3080.3,2219.47,3087.25,2209.43,3087.25Zm-38.58,56.88,0.16-43.66-14.26,6.45c-1.46,4.13-1.95,10.09-1.95,14.88,0,11.75,3.08,20.18,7.78,26.46Z" transform="translate(-2136 -3050)"/>
</svg>
