<svg xmlns="http://www.w3.org/2000/svg" width="536" height="80.03" viewBox="0 0 536 80.03">
  <metadata><?xpacket begin="﻿" id="W5M0MpCehiHzreSzNTczkc9d"?>
<x:xmpmeta xmlns:x="adobe:ns:meta/" x:xmptk="Adobe XMP Core 5.6-c140 79.160451, 2017/05/06-01:08:21        ">
   <rdf:RDF xmlns:rdf="http://www.w3.org/1999/02/22-rdf-syntax-ns#">
      <rdf:Description rdf:about=""/>
   </rdf:RDF>
</x:xmpmeta>
                                                                                                    
                                                                                                    
                                                                                                    
                                                                                                    
                                                                                                    
                                                                                                    
                                                                                                    
                                                                                                    
                                                                                                    
                                                                                                    
                                                                                                    
                                                                                                    
                                                                                                    
                                                                                                    
                                                                                                    
                                                                                                    
                                                                                                    
                                                                                                    
                                                                                                    
                                                                                                    
                           
<?xpacket end="w"?></metadata>
<defs>
    <style>
      .cls-1 {
        fill: #e1f1f5;
        fill-rule: evenodd;
      }
    </style>
  </defs>
  <path class="cls-1" d="M2938.41,3083.45a27.8,27.8,0,0,0-6.15,6.21,33,33,0,0,0-6.43-5.79,40.917,40.917,0,0,0,6.43-6.49,38.047,38.047,0,0,0,6.15,6.07m37.27,15.98c-0.34,4.2-3.6,8.44-8.13,8.44-4.23,0-6.85-1.69-8.28-4.67l-0.56.34v28.27c2.41,1.28,6.18,3.52,8.27,4.89l4.52-4.61,0.71,0.62-10.82,11.1a114.622,114.622,0,0,0-15.48-9.28v-0.22c1.91-1.17,2.61-3,2.61-7.46v-19.33a59.463,59.463,0,0,0,17.47-10.53,6.315,6.315,0,0,0,5.09,2.99,8.128,8.128,0,0,0,4.32-.98l0.28,0.43h0Zm-30.76,35.17-9.05,9.27a72.066,72.066,0,0,0-10.11-6.62v-0.22c1.34-.55,2.26-2.72,2.26-5.44v-25.46l-3.25-2.24-2.62,2.65-0.63-.62,8.83-9.13a74.982,74.982,0,0,0,9.97,6.48v0.14c-1.45.86-2.12,3.63-2.12,6.83v24.36l3.39,2.1,2.62-2.74Zm-20.79.13-8.98,9.14a70.792,70.792,0,0,0-7.99-5.15v-30.71a26.454,26.454,0,0,1-5.72-3.84l-3.18,3.28v27.08l4.45,2.5v0.22l-6.57,6.62a63.331,63.331,0,0,0-10.19-6.55v-0.14c1.2-1.12,2.05-3.08,2.05-6.84v-46.06c0-3.48-.63-4.53-1.34-5.72l0.49-.2a7.11,7.11,0,0,1,2.91,4.81h0.14a13.143,13.143,0,0,1,10.61-6.91l0.13,0.28a10.228,10.228,0,0,0-2.68,6.98v22.61l8.76-9.14a77.27,77.27,0,0,0,12.37,8.51v0.2c-1.2,1.27-1.9,3.7-1.9,7.9v21.13l3.32,2.1,2.69-2.72Zm-54.3,6.36h-0.77v-51.85h0.77v51.85Zm14.29-7.75c-4.58,5.27-13.23,13.89-26.59,13.89-18.18,0-31.53-12.19-31.53-33.01,0-19.1,15.96-29.69,26.3-33.63l0.85,0.42c-9.75,6.38-14.99,14.1-14.99,27.56,0,11.87,4.31,20.32,10.82,25.26l2.19-1.47v-29.73c0-5.36-.99-9.13-2.62-10.45v-0.43a94.357,94.357,0,0,0,21.99-14.65,8.361,8.361,0,0,0,6.72,2.93,10.462,10.462,0,0,0,6.36-2.02l0.5,0.42c-0.27,6.07-3.54,11.71-11.24,11.71-4.81,0-7.43-1.59-9.83-4.32l-0.36.07v40.2a144,144,0,0,0-12.86,8.44c4.4,3,10.82,3.55,17.39,3.55,6.14,0,11.6-2.37,16.55-5.78l0.35,1.04h0Zm187.2,4.05V3108.5c-2.38-1.46-6.24-4.43-7.76-5.65l-1.14.63v28.88c1.65,0.95,4.81,3.35,7.79,5.65Zm12.6-31.69c-1.42.63-2.26,2.58-2.26,6.57v20.79c-4.2,1.82-13.79,7.1-18.6,10.88a101.545,101.545,0,0,0-13.22-8.58v-0.2c1.42-.85,2.34-3.15,2.34-6.77v-20.52a130.094,130.094,0,0,0,18.38-10.95,136.953,136.953,0,0,0,13.36,8.58v0.2h0Zm-51.55,29.46v-26.94a70.365,70.365,0,0,1-7.84-5.45l-1.06.64v28.75c1.73,0.97,5.41,3.59,7.07,4.81l1.83-1.81h0Zm14.5,5.44c0,2.72-3.93,5.58-8.13,8.92-5.5,4.4-8.34,6.5-8.34,6.5-2.73-1.52-4.3-1.95-8.34-1.95-5.11,0-8,.52-11.6,1.95l-0.21-.07a18.637,18.637,0,0,1,16.75-9.77,20.4,20.4,0,0,1,10.33,3.22c0.7-.45,2.97-2.08,2.97-3.28,0-3.57-6.67-3.24-7.78-9.77l-7.64,7.59a116.411,116.411,0,0,0-13.79-8.78v-0.28c1.56-.99,2.2-2.32,2.2-5.73v-21.28c7.48-3.89,14.34-7.79,18.53-10.95a104.03,104.03,0,0,0,13.14,8.58v0.2c-1.62.99-2.19,2.52-2.19,8.1v16.89c0,5.66,4.1,5.23,4.1,9.91m-54.66-4.19v-18.64c-6.15.72-9.61,5.03-9.61,10.41a10.521,10.521,0,0,0,7.5,9.69Zm0-19.53v-8.31a90.212,90.212,0,0,1-8.76-5.94l-1.13.71c0.35,4.92,1.04,11.35,4.38,14.66a36.024,36.024,0,0,1,5.51-1.12m17.76,17.93-9.06,9a58.7,58.7,0,0,0-8.97-6h-0.07c-3.08,2.16-5.57,3.99-8.56,6.06-5.37-1.74-9.68-6.51-9.68-12.06,0-7.48,6.1-11.33,11.73-13.33v-0.07a17.759,17.759,0,0,1-9.9-12.01l15.55-9.48a115.67,115.67,0,0,0,13.94,9.21v0.2c-1.92,1.27-2.4,2.81-2.4,6.78v21.06l4.09,2.6,2.62-2.66,0.71,0.7h0Zm320.43,0.07-9.05,9.06a75.716,75.716,0,0,0-7.99-5.23V3107.8a44.709,44.709,0,0,1-4.81-3.49l-4.24,4.26v26.03a28.042,28.042,0,0,1,4.38,2.51v0.21l-6.57,6.62a68.112,68.112,0,0,0-10.26-6.55v-0.21c1.49-.83,2.2-2.58,2.2-6.57v-22.67l-4.87-3.84-2.63,2.65-0.64-.62,9.05-9.14a60.239,60.239,0,0,0,9.34,7.25v2.73l9.61-9.98a137.225,137.225,0,0,0,11.81,7.82v0.21c-1.7.9-2.19,3.13-2.19,7.11v22.47l3.53,2.3,2.69-2.66,0.64,0.64h0Zm-40.38-.21-8.98,9.2a75.443,75.443,0,0,0-8.84-5.93v-3.21l-10.24,9.21a56.949,56.949,0,0,0-11.24-7.31v-0.22c1.89-1.01,2.33-2.86,2.33-7.26v-22.88l-3.26-2.24-2.75,2.79-0.71-.62,8.98-9.21a44.206,44.206,0,0,0,7.92,5.23v31.54a46.666,46.666,0,0,1,4.81,3.27l4.09-3.76V3106.2a28.523,28.523,0,0,0-4.24-2.45v-0.21a56.423,56.423,0,0,0,6.57-6.55,90.988,90.988,0,0,0,10.13,6.42v0.13c-1.57.72-2.2,2.38-2.2,6v24.63l4.53,2.53,2.54-2.59,0.56,0.56h0Zm-86.67-51.15a32.256,32.256,0,0,0-6.16,6.21,41.726,41.726,0,0,0-6.29-5.93,40.458,40.458,0,0,0,6.29-6.62,57.724,57.724,0,0,0,6.16,6.34m6.64,51.15-9.05,9.27a75.474,75.474,0,0,0-10.19-6.62v-0.21c1.56-.99,2.2-2.94,2.2-5.86v-24.98l-3.32-2.3-2.55,2.57-0.64-.62,8.84-9.07c2.48,2.35,7.4,5.18,9.97,6.49v0.14c-1.45.85-2.12,2.22-2.12,5.93v25.26l3.53,2.1,2.7-2.73,0.63,0.63h0Zm-22.91-34.9c-0.32,3.63-3.61,8.31-7.7,8.31a8.137,8.137,0,0,1-6.86-3.49l-1.06,1.05v27.14a74.031,74.031,0,0,1,7.13,3.99l2.62-2.66,0.71,0.62-9.18,9.21a104.808,104.808,0,0,0-13.51-8.5v-0.08c1.51-.53,2.12-1.75,2.12-4.17v-23.32l-4.53-3.9-2.54,2.72-0.64-.64,8.7-9.06a65.291,65.291,0,0,0,8.98,7.53l7.21-7.46c1.36,1.65,2.84,3.06,5.38,3.06a7.473,7.473,0,0,0,2.82-.62l0.35,0.27h0Zm-27.57-21.84c-1.01,7.72-4.22,14.6-12.52,14.6-0.98,0-2.82-.15-3.46-0.22v45.77c5.02-.69,11.15-3.1,13.58-5.02l0.35,0.9c-3.79,5.36-14.22,13.55-27.15,13.55-16.34,0-28.99-10.62-28.99-27.78,0-14.78,12.36-25.44,20.43-28.26l0.71,0.28c-5.64,5.06-9.62,11.96-9.62,22.82,0,9.06,3.75,15.07,9.48,19.54l2.54-1.6v-22.48c0-4.74-.41-8.21-3.18-9.21v-0.35a127.259,127.259,0,0,0,14.71-7.39v33.06a135.807,135.807,0,0,0-13.22,8.67c3.68,2.51,9.05,3.77,14.63,3.77a27.6,27.6,0,0,0,4.96-.42v-45.93c-10.18-.83-21.03-5-29.35-5-5.84,0-10.25,2.36-10.25,6.75,0,2.66,2.12,3.8,3.47,4.4l-1.14.62c-2.48-1.11-5.58-3.77-5.58-9.41,0-8.22,6.69-13.6,15.69-13.6,12.45,0,24.15,6.48,35.14,6.48a8.9,8.9,0,0,0,8.13-5.02l0.64,0.48h0Zm193.01,37.2c-1.45-2.04-6.03-8.77-8.06-11.93l-0.7.55v17.16Zm9.48-4.82c-5.89,3.56-12.9,8.14-18.24,11.93v9.85a74.84,74.84,0,0,1,8.27,4.74l4.8-4.89,0.64,0.57-11.23,11.43a169.369,169.369,0,0,0-15.14-9.34v-0.2c1.55-.44,2.41-2.66,2.41-7.55v-18.98a81.586,81.586,0,0,0,17.74-10.95l10.75,13.39h0Zm-129.03,27.01v-29.24l-5.59-3.77-3.32,3.14v24.85l7.56,5.71,1.35-.69h0Zm12.51-31.54c-1.73.71-2.18,2.86-2.18,7.82v19.61c-4.39,1.52-14.08,6.48-18.61,10.73-3.4-2.34-8.83-6.01-13.22-8.58v-0.2c2.05-1.12,2.33-3,2.33-8.67v-41.86a11.25,11.25,0,0,0-1.27-5.99l0.43-.21a8.075,8.075,0,0,1,2.9,4.74H3216c2.28-3.75,5.11-6.15,10.6-6.84l0.08,0.41a9.707,9.707,0,0,0-2.62,7.13v22.26l8.7-9.14c2.61,2.31,9.35,6.52,12.72,8.58v0.21Z" transform="translate(-2826 -3076)"/>
</svg>
