<svg xmlns="http://www.w3.org/2000/svg" width="338" height="120" viewBox="0 0 169 60">
  <metadata><?xpacket begin="﻿" id="W5M0MpCehiHzreSzNTczkc9d"?>
<x:xmpmeta xmlns:x="adobe:ns:meta/" x:xmptk="Adobe XMP Core 5.6-c140 79.160451, 2017/05/06-01:08:21        ">
   <rdf:RDF xmlns:rdf="http://www.w3.org/1999/02/22-rdf-syntax-ns#">
      <rdf:Description rdf:about=""/>
   </rdf:RDF>
</x:xmpmeta>
                                                                                                    
                                                                                                    
                                                                                                    
                                                                                                    
                                                                                                    
                                                                                                    
                                                                                                    
                                                                                                    
                                                                                                    
                                                                                                    
                                                                                                    
                                                                                                    
                                                                                                    
                                                                                                    
                                                                                                    
                                                                                                    
                                                                                                    
                                                                                                    
                                                                                                    
                                                                                                    
                           
<?xpacket end="w"?></metadata>
<defs>
    <style>
      .cls-1 {
        fill: #e1f1f5;
        fill-rule: evenodd;
      }
    </style>
  </defs>
  <path class="cls-1" d="M608.281,1545.56a5.72,5.72,0,0,0-3.44-2.09h-0.815v-0.72h0.68c0.314,0,4.027.15,4.389,0.15,0.591,0,2.3-.15,2.67-0.15h0.723l17.219,19.28v-15.21c0-2.42-1.04-3.35-3.661-3.35h-0.77v-0.72h0.815c0.091,0,3.978.15,4.293,0.15,0.45,0,3.028-.15,3.525-0.15h0.5l0.044,0.72c-2.4.18-3.031,0.84-3.031,2.98v24.05H630.61l-20.565-23.03v17.33c0,3.63.817,4.61,3.8,4.61h0.768v0.78H613.75c-0.632,0-3.75-.16-4.475-0.16-0.406,0-3.3.16-3.935,0.16h-0.726v-0.78c3.034-.28,3.669-0.79,3.669-3.03v-20.82h0Zm31.17,0.28c0-1.81-.679-2.37-2.807-2.37h-0.677v-0.72h1.765c1.222,0,7.826.15,7.873,0.15,0.947,0,7.225-.15,8.576-0.15h1.808l0.091,5.97h-0.7c-0.138-3.12-1.509-4.37-4.671-4.37h-6.322v10.57h5.464c2.123,0,3.3-1.03,3.614-3.22l0.806,0.05v8.34h-0.762c-0.359-2.61-1.671-3.63-4.832-3.63H644.34v9.64a2.074,2.074,0,0,0,2.3,2.38h4.517a6.482,6.482,0,0,0,6.323-4.15H658.3l-1.9,5.85c-1.314,0-7.541-.15-9.617-0.15-1.4,0-8.144.11-9.684,0.15h-1.176v-0.77h0.723c2.128-.05,2.81-0.61,2.81-2.42v-21.15h0Zm43.455,24.71h-1.267l-5.162-14.47-5.295,14.47h-1.223l-8.831-24.29c-0.677-1.86-1.314-2.61-2.49-2.83v-0.69h0.77c0.5,0,2.99.16,3.578,0.16,0.5,0,3.075-.15,3.619-0.15h0.817v0.72c-1.314.05-1.858,0.42-1.858,1.16a5.64,5.64,0,0,0,.364,1.68l6.2,17.21,3.531-9.82-2.308-6.6c-1-2.84-1.858-3.58-4.033-3.63v-0.72h0.728c0.632,0,3.893.15,4.665,0.15,0.63,0,3.89-.15,4.614-0.15h1.085v0.72h-1.085c-1.494,0-2.217.37-2.217,1.16a6.691,6.691,0,0,0,.452,1.91l6.021,17.12,4.754-14.52a14.75,14.75,0,0,0,.859-3.81c0-1.3-.633-1.87-2.035-1.87h-0.815v-0.71h0.227c0.632,0,2.214.15,3.166,0.15,0.45,0,2.215-.15,3.071-0.15h0.32v0.72c-1.135.33-1.718,1.16-2.62,4l-7.606,23.08h0Zm10.433-6.73a7.232,7.232,0,0,0,2.571,3.57,9.287,9.287,0,0,0,5.821,1.81c3.879,0,6.5-2.09,6.5-5.11,0-2.23-1.264-3.44-5.937-5.71-4.527-2.23-5.657-3.34-6.6-4.27a6.6,6.6,0,0,1-1.982-4.79c0-4.27,3.382-7.1,8.5-7.1a20.589,20.589,0,0,1,5.029.7,8.851,8.851,0,0,0,1.858.28,0.611,0.611,0,0,0,.677-0.4h0.78l0.089,5.85h-0.643a7.054,7.054,0,0,0-1.267-2.76,7.243,7.243,0,0,0-5.821-2.37c-3.247,0-5.37,1.58-5.37,3.95,0,2.04,1.223,3.2,5.553,5.24,5.552,2.65,8.914,5.02,8.914,9.38,0,5.02-4,8.41-9.906,8.41a20.854,20.854,0,0,1-4.782-.61,9.879,9.879,0,0,0-1.624-.23,1.119,1.119,0,0,0-1.079.53h-0.768l-0.091-.65c-0.307-1.84-.671-3.68-1.088-5.49l0.679-.24v0.01ZM553.331,1553.5a4.311,4.311,0,0,0-1.9.44,4.515,4.515,0,0,0-2.485,4.06,4.383,4.383,0,1,0,4.381-4.5h0Zm18.887,0a4.5,4.5,0,1,0,4.382,4.5,4.441,4.441,0,0,0-4.382-4.5h0Zm18.841,13.5a9,9,0,1,1,8.534-11.05h-4.631a4.351,4.351,0,0,0-3.9-2.45,4.5,4.5,0,0,0,0,9,4.368,4.368,0,0,0,3.908-2.47l4.639-.04a8.822,8.822,0,0,1-8.547,7.01h0Zm-18.841,0a8.881,8.881,0,0,1-8.766-8.94l-0.1-15.79h4.434l0.026,8.47a7.131,7.131,0,0,1,4.41-1.74A9,9,0,0,1,572.218,1567Zm-14.43,0-0.018-2.25a6.954,6.954,0,0,1-4.746,2.25c-4.84,0-8.459-4.03-8.459-9a8.885,8.885,0,0,1,8.763-9,8.4,8.4,0,0,1,2.194.28,8.962,8.962,0,0,1,6.572,8.72v0.02l0.052,8.98h-4.358Zm14.43-39.01c-16.137,0-29.217,13.44-29.217,30.01s13.08,30.01,29.217,30.01,29.214-13.44,29.214-30.01S588.35,1527.99,572.218,1527.99Z" transform="translate(-543 -1528)"/>
</svg>
