<svg xmlns="http://www.w3.org/2000/svg" width="234" height="100" viewBox="0 0 234 100">
  <metadata><?xpacket begin="﻿" id="W5M0MpCehiHzreSzNTczkc9d"?>
<x:xmpmeta xmlns:x="adobe:ns:meta/" x:xmptk="Adobe XMP Core 5.6-c140 79.160451, 2017/05/06-01:08:21        ">
   <rdf:RDF xmlns:rdf="http://www.w3.org/1999/02/22-rdf-syntax-ns#">
      <rdf:Description rdf:about=""/>
   </rdf:RDF>
</x:xmpmeta>
                                                                                                    
                                                                                                    
                                                                                                    
                                                                                                    
                                                                                                    
                                                                                                    
                                                                                                    
                                                                                                    
                                                                                                    
                                                                                                    
                                                                                                    
                                                                                                    
                                                                                                    
                                                                                                    
                                                                                                    
                                                                                                    
                                                                                                    
                                                                                                    
                                                                                                    
                                                                                                    
                           
<?xpacket end="w"?></metadata>
<defs>
    <style>
      .cls-1 {
        fill: #e1f1f5;
        fill-rule: evenodd;
      }
    </style>
  </defs>
  <path class="cls-1" d="M1585.5,3116.15a47.986,47.986,0,1,1,48.09,48.34,48.156,48.156,0,0,1-48.09-48.34h0Zm-61.5,49.84V3066h60.39l1.81,27.43h-33.77v13.11h27.62v27.02h-27.62v32.43H1524Zm234-.3-30.25-51.64,27.62-47.64h-30.54l-12.3,21.21-12.51-21.21h-31.15l27.93,47.94-29.74,51.34h30.55l14.41-24.82,14.62,24.82H1758Zm-116.15-29.72v-39.64a8.448,8.448,0,0,0-8.26-8.71c-4.34,0-8.07,4.01-8.07,8.71v39.64a8.21,8.21,0,0,0,8.07,8.1c4.74,0,8.26-3.2,8.26-8.1h0Z" transform="translate(-1524 -3066)"/>
</svg>
