<svg xmlns="http://www.w3.org/2000/svg" width="570.64" height="114.555" viewBox="4.622 2.261 570.64 114.555" fill="#ED2655" class="injected-svg header__logo-image svg inject-svg" data-fallback="/sites/womenshealthmag.com/themes/womenshealth/images/wh_logo.png"><path d="M60.165 116.555L70.293 16.41c.57-5.135 1.569-5.992 3.281-5.992h.998V4.713H58.167v5.705h.999c2.282 0 3.423 1.57 3.138 5.992l-5.849 59.916-6.704-59.916c-.572-4.707.569-5.992 3.139-5.992h.284V4.713H30.349v5.705h1.143c2.14 0 2.14.857 2.568 5.992l1.712 15.266-5.28 48.502-5.99-63.768c-.714-5.135.285-5.992 2.567-5.992h.284V4.713H4.243v5.705h1.142c2.425 0 2.567.857 3.138 5.992l10.271 100.145h14.837l5.849-51.5 5.991 51.5h14.694zm98.293-65.621c0-6.99 0-9.416 4.422-9.416 2.996 0 2.996 1.141 2.996 6.99v59.773c0 2.141-.714 2.568-1.855 2.568h-.712v5.705h22.967v-5.705h-.999c-1.568 0-1.996-.572-1.996-2.854V45.371c0-10.273-2.14-14.268-12.269-14.268-5.85 0-10.128 1.855-12.839 8.273-1.143-5.705-4.138-8.273-11.983-8.273-6.42 0-9.844 1.998-12.411 8.273v-8.273l-19.687 1.57v5.705h.855c1.284 0 2.282.998 2.282 4.139v65.049c0 2.568-.57 3.283-2.282 3.283h-.855v5.705h21.969v-5.705h-.855c-1.142 0-1.427-.428-1.427-2.141V50.934c0-6.99-.144-9.416 4.278-9.416 2.996 0 2.996 1.141 2.996 6.99v59.773c0 2.141-.713 2.568-1.712 2.568h-.998v5.705h22.541v-5.705h-.286c-1.568 0-2.14-.572-2.14-2.854V50.934zm160.492 65.621h27.535v-5.705h-1.857c-2.424 0-3.137-1-3.137-5.992V61.775h14.551v43.082c0 4.992-.713 5.992-2.996 5.992h-2.141v5.705h27.391v-5.705h-2.28c-2.429 0-2.854-1-2.854-5.992V16.41c0-5.135.426-5.992 2.854-5.992h2.28V4.713h-27.391v5.705h2.141c2.283 0 2.996.857 2.996 5.992v38.658h-14.551V16.41c0-5.135.713-5.992 3.137-5.992h1.857V4.713H318.95v5.705h2.426c2.283 0 2.996.857 2.996 5.992v91.298c0 2.426-.713 3.142-2.996 3.142h-2.426v5.705zm208 0h21.826v-5.705h-.713c-1.426 0-1.57-.429-1.57-2.142V50.934c0-6.99.145-9.416 4.566-9.416 3.279 0 3.279 1.141 3.279 6.99v59.773c0 2.141-.568 2.568-1.566 2.568h-1v5.705h23.111v-5.705h-.998c-1.57 0-1.855-.572-1.855-2.854V45.371c0-10.273-2.568-14.268-12.555-14.268-6.561 0-10.27 1.998-12.982 8.273V3l-20.969 1.713v5.705h2.141c1.424 0 2.281.857 2.281 3.996v93.152c0 2.568-.43 3.283-2.281 3.283h-.715v5.706zm-435.971.998c18.262 0 20.829-15.265 20.829-43.226 0-28.102-2.711-43.225-20.829-43.225-18.116 0-20.826 15.123-20.826 43.225-.001 27.962 2.567 43.226 20.826 43.226zm138.238-.998h21.969v-5.705h-1c-1.281 0-1.281-.429-1.281-2.142V50.934c0-6.99 0-9.416 4.562-9.416 3.139 0 3.283 1.141 3.283 6.99v59.773c0 2.141-.855 2.568-1.713 2.568h-1v5.705h23.112v-5.705h-.998c-1.57 0-1.996-.572-1.996-2.854V45.371c0-10.273-2.426-14.268-12.557-14.268-6.416 0-10.27 1.998-12.693 8.273v-8.273l-21.115 1.57v5.705h2.283c1.285 0 2.281.998 2.281 4.139v65.049c0 2.568-.568 3.283-2.281 3.283h-.855l-.001 5.706zm202.434.998c7.561 0 10.414-3.707 11.982-8.132 1.426 6.562 2.996 8.132 11.555 8.132 9.986 0 11.271-5.99 11.129-17.689h-4.709c0 8.419-.143 9.273-1.713 9.273-1.426 0-1.426-.714-1.426-5.423V48.223c0-11.27-3.707-17.119-16.832-17.119-10.414 0-20.686 3.139-20.117 14.408.287 5.137 2.285 10.557 7.705 10.271 4.992-.285 7.275-2.994 7.275-7.133 0-2.852-2.141-7.561-5.562-10.129 1.283-.57 3.279-1.143 6.561-1.143 3.711 0 4.422 2.854 4.422 8.275v15.55c-18.973 6.42-22.967 8.987-22.967 32.812 0 17.119 4.138 23.538 12.697 23.538zm-32.668 0c14.121 0 17.402-4.279 16.689-27.675h-5.85c0 18.545-.57 19.972-7.131 19.972-7.848 0-7.848-3.425-7.848-35.233v-2.57h22.822c0-32.096-3.564-40.941-18.686-40.941-13.695 0-20.828 8.418-20.828 43.795.004 33.665 5.424 42.796 20.832 42.652zm-189.597 0c13.84 0 17.691-4.279 17.119-27.675h-5.846c0 18.545-.856 19.972-7.562 19.972-8.417 0-7.989-3.425-7.989-35.233v-2.57h22.112c0-32.096-2.995-40.941-17.833-40.941-13.835 0-20.969 8.418-20.969 43.795-.001 33.665 5.419 42.796 20.968 42.652zm260.072-.998h22.826v-5.705h-1.713c-1.428 0-1.998-.716-1.998-2.996V3l-21.256 1.713v5.705h2.426c1.426 0 1.996.57 1.996 2.854v94.867c0 2.139-.143 2.711-1.141 2.711h-1.141v5.705h.001zm-166.629.998c10.416 0 15.838-6.849 15.838-17.117 0-24.108-21.828-38.09-21.828-55.352 0-5.279 1.855-6.848 5.564-6.848 5.42 0 6.277 2.283 7.275 10.414l.854 7.988h6.277V31.816h-4.99c-.287 3.141-.998 4.281-1.287 3.852-1.566-1.854-5.277-4.564-11.41-4.564-9.13 0-17.119 4.137-17.119 17.689 0 21.113 21.684 37.234 21.684 53.354 0 6.99-1.567 8.131-6.562 8.131-4.992 0-6.275-2.28-7.273-12.838l-.715-6.991h-6.562v26.106h5.705c.43-2.854 1.43-4.707 2.283-3.853 1.854 2.141 3.85 4.851 12.266 4.851zm193.734-18.686c0 13.551 1.996 18.687 15.404 18.687 9.416 0 11.559-3.707 11.559-14.121V89.307h-5.707v14.838c0 4.992-.43 5.562-2.281 5.562-1.855 0-2.283-.569-2.283-4.992V38.236h10.414v-6.42h-10.271V10.418h-5.848c-4.139 18.975-7.703 21.398-13.268 21.398h-1.568v6.277h3.85v60.774h-.001zm-405.584 11.41c-3.992 0-3.992-2.281-3.992-35.949 0-33.809 0-36.092 3.992-36.092 3.995 0 3.995 2.283 3.995 36.092 0 33.811 0 35.949-3.995 35.949zm188.17-74.892c14.264-10.559 17.119-18.547 12.41-25.822-2.568-3.994-8.418-6.562-12.697-2.996-5.137 4.279-3.852 11.699 5.707 15.979-1.713 1.996-5.707 5.85-8.988 9.131l3.568 3.708zm159.35 72.181c-3.424 0-3.424-3.564-3.424-14.834 0-20.543 0-23.254 6.846-26.963v35.236c-.001 5.278-.712 6.561-3.422 6.561zM205.107 66.055c.285-26.678.714-27.961 4.423-27.961 3.566 0 3.282 1.428 3.282 27.961h-7.705zm189.74 0c.428-26.678.713-27.961 4.421-27.961 3.709 0 3.139 1.428 3.139 27.961h-7.56z"/></svg>