<svg xmlns="http://www.w3.org/2000/svg" xmlns:xlink="http://www.w3.org/1999/xlink" width="26px" height="32px">
    <path fill-rule="evenodd" fill="rgb(207, 192, 190)" d="M10.271,21.153 C9.427,25.557 8.395,29.781 5.338,31.986 C4.396,25.329 6.724,20.329 7.805,15.020 C5.962,11.934 8.027,5.722 11.916,7.252 C16.700,9.136 7.772,18.728 13.765,19.927 C20.023,21.177 22.578,9.127 18.697,5.209 C13.091,-0.448 2.377,5.080 3.695,13.181 C4.016,15.162 6.073,15.762 4.517,18.495 C0.929,17.704 -0.143,14.890 -0.004,11.137 C0.218,4.994 5.545,0.694 10.887,0.099 C17.645,-0.653 23.987,2.566 24.862,8.889 C25.849,16.024 21.813,23.752 14.587,23.197 C12.629,23.045 11.806,22.081 10.271,21.153 Z"></path>
</svg>