 <svg
    xmlns="http://www.w3.org/2000/svg"
    xmlns:xlink="http://www.w3.org/1999/xlink"
    width="30px"
    height="24px"
>
    <path
    fill-rule="evenodd"
    fill="rgb(207, 192, 190)"
    d="M30.001,2.843 C28.910,3.316 27.723,3.640 26.470,3.803 C27.755,3.039 28.731,1.867 29.188,0.434 C28.000,1.135 26.666,1.639 25.267,1.915 C24.158,0.727 22.549,-0.005 20.758,-0.005 C17.374,-0.005 14.607,2.713 14.607,6.049 C14.607,6.537 14.689,6.994 14.786,7.433 C9.660,7.188 5.120,4.779 2.093,1.101 C1.572,2.013 1.247,3.039 1.247,4.145 C1.247,6.261 2.354,8.115 3.981,9.190 C2.972,9.174 2.028,8.897 1.198,8.441 C1.198,8.474 1.198,8.490 1.198,8.523 C1.198,9.304 1.345,10.021 1.621,10.704 C2.370,12.609 4.079,14.040 6.146,14.447 C5.608,14.594 5.088,14.675 4.518,14.675 C4.128,14.675 3.737,14.626 3.362,14.545 C4.160,16.954 6.422,18.711 9.108,18.776 C6.991,20.404 4.355,21.364 1.475,21.364 C0.970,21.364 0.499,21.331 -0.005,21.282 C2.728,22.992 5.966,24.001 9.433,24.001 C19.050,24.001 24.990,17.344 26.535,10.427 C26.812,9.190 26.942,7.970 26.942,6.765 C26.942,6.505 26.942,6.229 26.942,5.983 C28.130,5.122 29.188,4.047 30.001,2.843 L30.001,2.843 Z"
    ></path>
</svg>